<?xml version="1.0" encoding="UTF-8"?>
<svg id="Layer_1" data-name="Layer 1" xmlns="http://www.w3.org/2000/svg" viewBox="0 0 900 350">
  <defs>
    <style>
      .cls-1 {
        fill: #194fe3;
      }

      .cls-1, .cls-2, .cls-3 {
        stroke-width: 0px;
      }

      .cls-2 {
        fill: #38d200;
      }

      .cls-3 {
        fill: #3f3f3f;
      }
    </style>
  </defs>
  <g>
    <path class="cls-2" d="M171.487799,86.077675c.111846,1.963758-.334685,3.837837-1.218535,5.428192-.158525.300035-.317051.582408-.511761.846904l-12.898271,21.579253-18.015019,30.137033-17.168115,28.690059-25.078149-21.870286c-29.535628-25.757588-11.318638-74.363177,27.870731-74.363181l36.472085-.000004c5.447653,0,10.237264,4.113192,10.547033,9.552031Z"/>
    <path class="cls-2" d="M287.924007,199.113385c29.532337,25.758841,11.314443,74.360971-27.873269,74.360971h-36.886397c-5.593185,0-10.145617-4.53477-10.145617-10.145617,0-1.729132.441114-3.370385,1.217371-4.799697.159387-.29982.335143-.581977.511761-.864135l12.898271-21.579683,17.168115-28.707505,18.033111-30.136817,25.076655,21.872485Z"/>
    <path class="cls-1" d="M290.639149,102.851193l-44.481847,74.389707-18.033111,30.136817-17.168115,28.707505-12.898271,21.579683c-.176618.282158-.352374.564316-.511761.864135-.776257,1.429312-1.217371,3.070566-1.217371,4.799697,0,5.610847,4.552432,10.145617,10.145617,10.145617h-97.679999c-13.516003,0-21.861841-14.733373-14.927222-26.325965l44.499078-74.389276,17.168115-28.690059,18.015019-30.137033,12.898271-21.579253c.19471-.264496.353236-.546869.511761-.846904.794349-1.429312,1.235463-3.087797,1.235463-4.83459,0-5.593185-4.552432-10.145617-10.145617-10.145617h97.662768c13.515141,0,21.86098,14.733158,14.927222,26.325534Z"/>
  </g>
  <g>
    <polygon class="cls-1" points="328.296563 164.059227 345.300929 164.059227 361.467506 83.228585 344.462691 83.228585 328.296563 164.059227"/>
    <path class="cls-1" d="M414.834217,120.530134l-7.52753,14.515681h-.496301l-2.10008-14.515681-5.733039-37.301548h-18.054405l-16.166128,80.830641h15.573798l6.505312-32.115518c1.546341-7.923314,2.480159-19.130472,3.209353-27.053786h.393989l2.567662,18.632376,5.864069,33.155237h6.873274l19.036238-33.155237,9.979867-18.632376h.393989c-2.510224,7.879338-5.676947,18.925849-7.369575,27.053786l-6.709486,32.115518h15.983044l16.166128-80.830641h-18.054405l-20.335774,37.301548Z"/>
    <path class="cls-1" d="M498.231174,83.228585h-25.535716l-16.166128,80.830641h17.004814l5.558032-28.082287h9.538761c20.368083,0,37.294817-8.725204,37.294817-31.28446,0-15.554951-11.892376-21.463894-27.69458-21.463894ZM490.441582,122.533736h-8.561864l5.032563-25.862395h8.677638c8.605392,0,13.535644,3.238521,13.535644,10.517452,0,10.064678-6.680318,15.344943-18.683981,15.344943Z"/>
    <polygon class="cls-1" points="523.870547 164.059227 572.999854 164.059227 575.787396 149.798876 543.619376 149.798876 547.877872 129.29348 574.240157 129.29348 577.027699 115.03313 550.621886 115.03313 554.048876 97.488936 585.181215 97.488936 587.969654 83.228585 540.036676 83.228585 523.870547 164.059227"/>
    <path class="cls-1" d="M630.754745,83.228585h-25.360709l-16.167026,80.830641h17.005263l5.84971-29.658245h9.952494l10.409307,29.658245h17.909015l-12.556279-32.027341c11.85098-3.962443,20.609278-13.024703,20.609278-28.127385,0-15.05865-11.790962-20.675915-27.651053-20.675915ZM623.460108,120.958227h-8.590583l4.740437-24.286886h8.503529c8.707255,0,13.491667,2.946843,13.491667,9.729473,0,8.780847-6.125233,14.557413-18.14505,14.557413Z"/>
    <polygon class="cls-1" points="679.307875 83.228585 663.14085 164.059227 680.146112 164.059227 696.312241 83.228585 679.307875 83.228585"/>
    <path class="cls-1" d="M731.056897,83.228585l-42.733935,80.830641h18.727508l9.583858-20.320068h24.084843l.960181,20.320068h17.821961l-8.16967-80.830641h-20.274746ZM722.685464,130.909375l5.022074-10.648034c3.777452-8.038639,6.898852-15.698098,10.4295-24.028415h.496301c.174109,8.490964.596818,16.077279.976447,24.028415l.503144,10.648034h-17.427466Z"/>
    <polygon class="cls-1" points="787.355194 149.798876 800.73378 83.228585 783.729415 83.228585 767.562389 164.059227 815.233306 164.059227 818.020848 149.798876 787.355194 149.798876"/>
  </g>
  <g>
    <path class="cls-2" d="M339.834134,180.633702c-7.84346,0-13.9879,5.560863-13.9879,12.659814,0,4.435921,2.476771,8.070876,7.573305,11.113811l5.903833,3.501988c3.799052,2.206616,5.493324,4.650146,5.493324,7.922079,0,5.726016-4.464942,9.725046-10.85843,9.725046-5.231612,0-9.16838-2.107946-12.036136-6.44467l-.46169-.698604-3.609627,2.559611.418951.651643c3.421258,5.316035,8.730433,8.126278,15.354503,8.126278,9.181571,0,15.845214-6.026247,15.845214-14.329287,0-4.796304-2.390765-8.423871-7.522651-11.415625l-5.805691-3.390654c-2.937934-1.683191-5.656367-3.779002-5.656367-7.683583,0-3.890863,3.414926-8.090398,8.932522-8.090398,5.04377,0,8.291959,2.771198,10.128696,5.095479l.523425.662724,3.278793-2.81763-.438474-.604155c-2.971703-4.0977-7.859817-6.543868-13.075599-6.543868Z"/>
    <polygon class="cls-2" points="373.258935 228.915964 399.629107 228.915964 400.538242 224.735951 378.662032 224.735951 382.530206 205.8974 400.324545 205.8974 401.233679 201.717915 383.288433 201.717915 386.497577 185.647924 407.668324 185.647924 408.576931 181.468438 382.749179 181.468438 373.258935 228.915964"/>
    <path class="cls-2" d="M452.270253,180.633702c-6.882089,0-13.166882,3.532591-17.69778,9.946658-4.019608,5.691191-6.325422,13.087735-6.325422,20.292743,0,11.644095,6.26316,18.877596,16.34595,18.877596,4.81055,0,8.911944-1.623567,13.298794-5.263798l.615763-.510761-2.608155-3.225501-.63212.532395c-3.54842,2.98595-6.632512,4.260215-10.312844,4.260215-10.8922,0-12.068323-10.569808-12.068323-15.114424,0-5.884838,1.9143-12.279381,5.120278-17.105761,2.570164-3.869229,7.100007-8.481912,14.083404-8.481912,3.356357,0,6.039966,1.711156,7.975372,5.085981l.442167.771419,3.603823-2.53534-.399956-.649532c-1.933823-3.138439-5.488048-6.879978-11.440952-6.879978Z"/>
    <path class="cls-2" d="M513.045593,211.091021l-.000528.001055c-1.84043,9.319286-6.280045,14.451173-12.50152,14.451173-8.100951,0-9.801555-5.859511-9.801555-10.775062,0-1.865757.209476-3.599602.665889-5.488048l5.562446-27.811701h-4.642231l-5.585135,27.782681c-.423172,2.270989-.61207,4.135691-.61207,6.04577,0,9.050714,5.283849,14.453811,14.134585,14.453811,6.222531,0,14.25911-3.100449,17.206013-17.869265l6.091147-30.412997h-4.615849l-5.901195,29.622583Z"/>
    <path class="cls-2" d="M565.838701,181.468438h-12.16541l-9.490244,47.447525h4.643814l4.186345-20.959688h8.083011l8.466083,20.959688h5.051157l-8.748901-21.302131c8.709327-1.423589,14.275467-7.31898,14.275467-15.25214,0-4.969371-2.480992-10.893255-14.301321-10.893255ZM575.543169,192.653482c0,7.104228-5.321311,11.178711-14.599969,11.178711h-7.055157l3.551059-18.2402h7.120585c9.678613,0,10.983482,3.569526,10.983482,7.061488Z"/>
    <polygon class="cls-2" points="600.578396 228.915964 605.221155 228.915964 614.711399 181.468438 610.068112 181.468438 600.578396 228.915964"/>
    <polygon class="cls-2" points="639.957157 185.772448 653.997821 185.772448 645.402465 228.915964 650.044696 228.915964 658.640052 185.772448 672.668052 185.772448 673.56083 181.468438 640.848351 181.468438 639.957157 185.772448"/>
    <polygon class="cls-2" points="689.86404 228.915964 694.506799 228.915964 703.997043 181.468438 699.353757 181.468438 689.86404 228.915964"/>
    <polygon class="cls-2" points="725.118718 228.915964 751.488362 228.915964 752.397497 224.735951 730.521815 224.735951 734.389989 205.8974 752.184328 205.8974 753.092934 201.717915 735.147689 201.717915 738.357888 185.647924 759.527052 185.647924 760.436186 181.468438 734.607907 181.468438 725.118718 228.915964"/>
    <path class="cls-2" d="M811.996713,187.17757c-2.972231-4.0977-7.860345-6.543868-13.075599-6.543868-7.843988,0-13.988427,5.560863-13.988427,12.659814,0,4.435921,2.476771,8.070876,7.573833,11.113811l5.903305,3.501988c3.79958,2.207144,5.493852,4.650146,5.493852,7.922079,0,5.726016-4.464942,9.725046-10.85843,9.725046-5.231612,0-9.16838-2.107946-12.036136-6.44467l-.46169-.698604-3.609627,2.559611.418951.651643c3.421258,5.316035,8.730433,8.126278,15.354503,8.126278,9.181043,0,15.844686-6.026247,15.844686-14.329287,0-4.796831-2.390765-8.424399-7.522651-11.415625l-5.805163-3.390654c-2.937934-1.683191-5.656367-3.779002-5.656367-7.683583,0-3.890863,3.414926-8.090398,8.931994-8.090398,5.04377,0,8.291959,2.771198,10.129223,5.095479l.523425.662724,3.278793-2.81763-.438474-.604155Z"/>
  </g>
  <g>
    <path class="cls-3" d="M392.941472,249.150157h-21.640943c-.67651-1.440446-1.669858-2.570148-2.979304-3.388552s-2.761432-1.227837-4.354481-1.227837c-1.571631,0-3.017709.414787-4.338233,1.244177-1.321263.829482-2.319042,1.953368-2.995552,3.372212h-6.087115c.428358-.547911.917277-.882935,1.471188-.982454-.872964-.501844-1.736327-1.265318-2.586396-2.291623-1.004426-1.200326-1.714171-1.964354-2.128496-2.292085-.917277-.720177-2.051687-1.167091-3.405446-1.342312l-1.604127,1.408319c1.65878.152418,2.93573.578283,3.83085,1.276858.414326.327177,1.036922,1.058524,1.866312,2.193489.647707.883211,1.370007,1.552798,2.159515,2.029808h-36.50349v1.5059h9.134366v1.768177h-4.027304c-.873703,0-1.64844.278063-2.32495.834744-.675772.556588-1.014765,1.260517-1.014765,2.111602,0,1.921149,1.265872,2.881446,3.797616,2.881446.262185,0,.649184-.01634,1.162475-.049021.512553-.032773.901029-.049113,1.162475-.049113,1.87739,0,2.815346.687589,2.815346,2.062581,0,.611056-.22895,1.102283-.68685,1.473219-.4579.371397-1.002949.556681-1.635146.556681-1.200141,0-2.323473-.339825-3.370735-1.019474-.30502-.196269-1.211958-.948111-2.719335-2.256727l-1.573108,1.672166,9.232593,7.66087,1.49556-1.694784-2.807222-2.329566c1.157305,0,2.139575-.397893,2.947546-1.195156.80871-.796709,1.212696-1.773901,1.212696-2.931575,0-1.353944-.491873-2.379695-1.473404-3.078269-.851546-.61161-1.975617-.917092-3.372212-.917092-.196454,0-.497043.011078-.90029.032681-.403986.021695-.703837.032773-.901029.032773-1.396595,0-2.094523-.294958-2.094523-.884319,0-.5889.424665-.883858,1.276212-.883858h6.09007v-3.797985h11.491812v8.9056c0,.895398-.284341,1.620375-.851546,2.177056-.567944.556681-1.298368.834744-2.193489.834744s-1.626283-.278063-2.194227-.834744c-.567205-.556681-.850808-1.281658-.850808-2.177056,0-.872687.300589-1.604589.901029-2.193396.599701-.589362,1.336034-.884319,2.209737-.884319.937956,0,1.713432.371397,2.32495,1.113269v-2.815439c-.80871-.393185-1.615944-.589454-2.423177-.589454-1.463064,0-2.711949.539787-3.748871,1.620467-1.036922,1.080589-1.555383,2.352184-1.555383,3.814325,0,1.440446.523631,2.674099,1.571631,3.69985s2.291715,1.538581,3.732623,1.538581c1.483744,0,2.744446-.510706,3.780629-1.532765,1.036922-1.022059,1.556121-2.272052,1.556121-3.750533v-3.098303h2.684623v-1.833631h-2.684623v-3.994254h4.74665v7.137516c0,3.208531,1.611512,4.81312,4.835276,4.81312,1.095267,0,1.895854-.185191,2.401021-.556681v2.848304h2.357446v-14.242258h3.403969v14.209485h2.259219v-14.209485h9.723727c1.28729.764582,1.932042,1.921149,1.932042,3.4709,0,1.091667-.349333,1.991865-1.047262,2.700964-.69719.709191-1.591572,1.063787-2.681669,1.063787-.632197,0-1.254055-.209009-1.864096-.628505l-1.552429-1.295875-1.531011,1.499068,9.200097,7.43192h3.282109l-6.269537-5.064872c3.061283-.74298,4.591555-2.709457,4.591555-5.899616,0-.436944-.103397-1.015781-.311667-1.737066-.206794-.721285-.430574-1.234668-.670602-1.540704h11.06567c.502213,0,.960851.469624,1.375916,1.407765.348595.807787.523631,1.506454.523631,2.095816,0,1.047354-.349333,1.915333-1.048,2.602829-.698667.687589-1.571631,1.031106-2.619631,1.031106-.807233,0-1.472665-.22378-1.996296-.671248-.524369-.446914-.786554-1.063694-.786554-1.849879,0-.239567.033235-.501844.098227-.785631l-2.356708.556588c-.022156.196362-.032496.393092-.032496.589454,0,.807787.240028,1.844617.7223,3.110396.546526,1.418844,1.542089,2.575503,2.986689,3.470346,1.378131.873241,2.855966,1.309631,4.43129,1.309631,1.706785,0,3.217117-.501751,4.530256-1.5059v2.880985h2.357446v-14.242258h17.842589v2.357539c-2.030269.022156-3.623318.873241-4.779885,2.553808v-.949773c-1.135149-1.069049-2.488169-1.604035-4.060539-1.604035-1.615205,0-3.0118.560374-4.190523,1.681582-1.178723,1.121301-1.767346,2.487338-1.767346,4.097743,0,1.610866.583453,3.020201,1.751098,4.228005,1.167645,1.208265,2.547992,1.811936,4.141779,1.811936,1.003687,0,1.985956-.270124,2.946808-.811018v-2.659328c-.760705.894936-1.705308,1.342312-2.834549,1.342312-1.064248,0-1.965277-.364012-2.704564-1.092221-.738548-.728116-1.107084-1.624622-1.107084-2.689424,0-1.06471.369274-1.960661,1.107823-2.689331.738548-.728209,1.640316-1.092313,2.704564-1.092313,1.456417,0,2.542083.650661,3.259214,1.952353-.195715.607825-.294681,1.34545-.294681,2.212968l2.423177,1.138657c-.21861-.498705-.327915-1.008857-.327915-1.529718,0-1.018827.365581-1.897423,1.096744-2.635048s1.610035-1.116962,2.635879-1.139211v9.691324h2.259219v-14.176805h2.521404v-1.5059h-20.561186ZM350.805812,258.579203c0,.654815-.235597,1.157121-.704575,1.506454-.468978.349241-1.042092.523354-1.718602.523354s-1.255532-.196269-1.73485-.588808c-.480795-.393092-.720823-.917092-.720823-1.571908v-7.792239h4.87885v7.923147ZM361.413582,249.150157h-2.32495c1.221559-1.789226,2.881077-2.684623,4.976339-2.684623s3.754041.895398,4.976339,2.684623h-7.627727ZM388.521999,258.359208c0,.936572-.613734,1.697369-1.840462,2.284699-1.030275.501197-2.07089.751381-3.121844.751381-1.468234,0-2.760694-.589454-3.878117-1.768177.524369.130815,1.025844.196269,1.506639.196269,1.614467,0,2.940899-.573021,3.977821-1.71851,1.036183-1.146042,1.555383-2.537467,1.555383-4.174737,0-1.134503-.295419-2.226169-.884781-3.274077h2.685362v7.703151Z"/>
    <path class="cls-3" d="M471.124199,265.2254c-.742241,0-1.353759.294958-1.833816.884319v2.422992l.393646.229042c.195715-1.157213.665432-1.735496,1.407673-1.735496.30502,0,.567205.130908.785077.393092.21861.261723.327177.545049.327177.851085,0,.829482-.4579,1.244269-1.375177,1.244269-.937956,0-1.82126-.338809-2.651389-1.015227-.82939-.676418-1.385517-1.473219-1.669858-2.389758h-2.095262c.370751,1.462141,1.145488,2.684716,2.324212,3.666616,1.178723.982546,2.511064,1.473773,3.994808,1.473773.960851,0,1.784333-.262277,2.471921-.786185.687589-.523446,1.031752-1.255255,1.031752-2.193489,0-.807787-.316837-1.516978-.949773-2.127942-.632936-.611518-1.353021-.917092-2.160992-.917092Z"/>
    <path class="cls-3" d="M514.177136,249.150157h-3.732623c-.67651-1.440446-1.669119-2.570148-2.978565-3.388552s-2.762171-1.227837-4.35522-1.227837c-1.571631,0-3.01697.414787-4.337494,1.244177-1.321263.829482-2.31978,1.953368-2.996291,3.372212h-4.877373c-.677249-1.440446-1.670596-2.570148-2.980043-3.388552s-2.761432-1.227837-4.353742-1.227837c-1.571631,0-3.018447.414787-4.338233,1.244177-1.321263.829482-2.31978,1.953368-2.995552,3.372212h-41.053686c.428358-.547911.916538-.882935,1.471188-.982454-.872964-.501844-1.735589-1.265318-2.587135-2.291623-1.002949-1.200326-1.712694-1.964354-2.128496-2.292085-.9158-.720177-2.050949-1.167091-3.403969-1.342312l-1.604866,1.408319c1.65878.152418,2.936468.578283,3.83085,1.276858.415064.327177,1.036922,1.058524,1.866312,2.193489.647707.883211,1.370746,1.552798,2.159515,2.029808h-13.684562v1.5059h7.40764c1.479312.830036,2.219338,2.172348,2.219338,4.027027,0,1.113269-.333085,2.030362-.997779,2.750631-.663955.720177-1.550952,1.080035-2.66099,1.080035-.631459,0-1.263656-.210025-1.894376-.631551-.067946-.043851-.59527-.497597-1.582709-1.361329l-1.443123,1.567661,7.923147,6.809785h3.416525l-5.15359-4.385315c2.008851-.502305,3.373689-1.593972,4.094512-3.276108v1.113269h3.241489v6.548154h2.193489v-14.242258h12.473343v7.497835c0,1.026305-.344902,1.861049-1.034706,2.504787-.691281.643737-1.55169.96556-2.582704.96556-1.096006,0-1.988911-.338255-2.679453-1.015227-.691281-.675864-1.036183-1.560183-1.036183-2.651942,0-1.025751.36115-1.903701,1.085666-2.635602.723039-.730701,1.601173-1.096375,2.632925-1.096375,1.118162,0,2.039132.447376,2.764386,1.342312v-2.848766c-.939433-.523446-1.888468-.785631-2.849319-.785631-1.615205,0-2.990382.611518-4.125531,1.833539-1.13441,1.222574-1.702354,2.651942-1.702354,4.289212,0,1.615113.573114,2.99546,1.719341,4.141502,1.146227,1.146042,2.536914,1.719064,4.174275,1.719064,1.353021,0,2.564978-.436851,3.633658-1.309631v2.25885h2.259958v-7.497281c0-.851639.403247-1.59351,1.211219-2.226723.741503-.610964,1.549474-.916446,2.423177-.916446v-2.292085c-1.354498,0-2.565717.436851-3.634396,1.309539v-2.586489h11.917216c.501474,0,.960113.469624,1.375177,1.407765.348595.807787.522892,1.506454.522892,2.095816,0,1.047354-.349333,1.915333-1.047262,2.602829-.698667.687589-1.571631,1.031106-2.618892,1.031106-.807972,0-1.473404-.22378-1.997035-.671248-.524369-.446914-.785815-1.063694-.785815-1.849879,0-.239567.032496-.501844.098227-.785631l-2.357446.556588c-.022156.196362-.032496.393092-.032496.589454,0,.807787.240028,1.844617.721562,3.110396.546526,1.418844,1.542827,2.575503,2.988167,3.470346,1.378131.873241,2.855228,1.309631,4.430551,1.309631,1.706785,0,3.216378-.501751,4.529517-1.5059v2.880985h2.357446v-14.242258h3.4697v14.209485h2.259958v-14.209485h9.722989c1.288028.764582,1.932781,1.921149,1.932781,3.4709,0,1.091667-.350072,1.991865-1.047262,2.700964-.69719.709191-1.59231,1.063787-2.682408,1.063787-.632197,0-1.254055-.209009-1.864096-.628505l-1.55169-1.295875-1.531749,1.499068,9.200097,7.43192h3.282109l-6.269537-5.064872c3.061283-.74298,4.591555-2.709457,4.591555-5.899616,0-.436944-.103397-1.015781-.310929-1.737066s-.430574-1.234668-.67134-1.540704h4.485943v14.209485h2.258481v-14.209485h10.477047v2.095262c-.502951-.130815-1.014765-.196269-1.539135-.196269-1.680936,0-3.110027.60044-4.28875,1.800858s-1.768085,2.651942-1.768085,4.354666c0,1.702169.589362,3.148432,1.768085,4.337771,1.178723,1.189894,2.619631,1.784517,4.321246,1.784517,1.746667,0,3.214162-.589362,4.403964-1.768177,1.189801-1.178723,1.785071-2.629786,1.785071-4.354112h-2.390681c0,1.112808-.352288,2.018822-1.054647,2.717396-.703098.698574-1.606343,1.047354-2.710472,1.047354-1.081973,0-1.980048-.354596-2.693486-1.063694-.714176-.709191-1.071634-1.609389-1.071634-2.701056,0-1.091205.369274-1.997127,1.107823-2.717858.738548-.720269,1.652133-1.080127,2.738537-1.080127,1.717125,0,2.8796.818404,3.488902,2.455673l.194977-.033235v-6.67897h15.846293v2.619262h-10.018408v1.768085h2.225985c.851546,0,1.598957.382014,2.242971,1.146042.643276.764028.966021,1.571354.966021,2.422439,0,.982546-.37149,1.845171-1.112992,2.586581-.74298.742333-1.604866,1.113269-2.586396,1.113269-.851546,0-1.604866-.272801-2.259219-.818312-.655092-.545603-1.048-1.233099-1.179462-2.062581v4.255977c1.003687.676972,2.161731,1.015227,3.471177,1.015227,1.702354,0,3.142523-.584192,4.321246-1.751837,1.178723-1.167183,1.768085-2.602829,1.768085-4.305552,0-1.309631-.403986-2.509495-1.211219-3.601254h3.372212v9.822139h2.259219v-14.209485h2.815346v-1.5059h-17.482916ZM435.667232,256.451168h-2.979304c.152141-.567205.22895-1.156567.22895-1.768085,0-1.702169-.502213-3.044573-1.5059-4.027027h4.256254v5.795112ZM470.338384,258.359208c0,.936572-.612995,1.697369-1.839724,2.284699-1.030275.501197-2.07089.751381-3.121844.751381-1.468234,0-2.760694-.589454-3.878117-1.768177.523631.130815,1.025844.196269,1.506639.196269,1.614467,0,2.940899-.573021,3.977083-1.71851,1.036922-1.146042,1.555383-2.537467,1.555383-4.174737,0-1.134503-.293942-2.226169-.884042-3.274077h2.684623v7.703151ZM481.011884,249.150157h-2.32495c1.222297-1.789226,2.881077-2.684623,4.976339-2.684623,2.096,0,3.754041.895398,4.977077,2.684623h-7.628466ZM500.557566,249.150157h-2.324212c1.221559-1.789226,2.880339-2.684623,4.9756-2.684623s3.75478.895398,4.976339,2.684623h-7.627727Z"/>
    <path class="cls-3" d="M610.116042,245.827058c-.99704-.840006-2.194966-1.260517-3.595992-1.260517-1.422444,0-2.637356.419957-3.644736,1.258948-1.006641.839453-1.608558,1.947552-1.806489,3.324668h-62.009257v1.5059h10.83672v7.497835c0,1.026305-.344902,1.861049-1.035445,2.504787-.691281.643737-1.552429.96556-2.581965.96556-1.074588,0-1.962323-.343979-2.663944-1.031567-.701621-.687496-1.052431-1.565538-1.052431-2.635602,0-1.025751.361889-1.903701,1.085666-2.635602.723777-.730701,1.601911-1.096375,2.632925-1.096375,1.118162,0,2.039871.447376,2.764386,1.342312v-2.848766c-.938695-.523446-1.899546-.785631-2.881816-.785631-1.615205,0-2.984474.61678-4.108544,1.849879-1.124809,1.233653-1.686106,2.657759-1.686106,4.272871s.578283,2.99546,1.73485,4.141502,2.542822,1.719064,4.158766,1.719064c1.353021,0,2.56424-.436851,3.633658-1.309631v2.291623h2.259219v-7.530054c0-.851639.403986-1.59351,1.211219-2.226723.742241-.610964,1.549474-.916446,2.423177-.916446.982269,0,1.844155.362443,2.586396,1.08742.741503.724978,1.112992,1.574031,1.112992,2.546976,0,.995655-.37666,1.87739-1.12924,2.645572-.753319.768275-1.632192,1.151858-2.635879,1.151858-.916538,0-1.735589-.338163-2.455673-1.014581v2.631817c.851546.427989,1.72451.642168,2.619631.642168,1.615205,0,2.984474-.622042,4.109283-1.866312,1.123332-1.244177,1.685367-2.673545,1.685367-4.289212,0-1.615113-.578283-2.990198-1.73485-4.125162-1.157305-1.134964-2.542822-1.702631-4.158027-1.702631-1.353759,0-2.564978.436851-3.634396,1.309539v-2.586489h20.168278v8.9056c0,.895398-.284341,1.620375-.851546,2.177056-.567944.556681-1.299107.834744-2.193489.834744-.895121,0-1.626283-.278063-2.193489-.834744-.567944-.556681-.851546-1.281658-.851546-2.177056,0-.872687.299851-1.604589.90029-2.193396.599701-.589362,1.336772-.884319,2.209737-.884319.938695,0,1.713432.371397,2.32495,1.113269v-2.815439c-.807972-.393185-1.615944-.589454-2.423177-.589454-1.462326,0-2.711949.539787-3.748133,1.620467-1.03766,1.080589-1.555383,2.352184-1.555383,3.814325,0,1.440446.523631,2.674099,1.571631,3.69985,1.047262,1.025751,2.291715,1.538581,3.731885,1.538581,1.484482,0,2.745184-.510706,3.782106-1.532765,1.036183-1.022059,1.554644-2.272052,1.554644-3.750533v-3.098303h2.684623v-1.833631h-2.684623v-3.994254h4.747389v7.137516c0,3.208531,1.611512,4.81312,4.834537,4.81312,1.095267,0,1.896592-.185191,2.401021-.556681v2.848304h2.356708v-14.242258h15.191939v2.881446h-7.104096c-1.41949,0-2.625539.496581-3.618148,1.48956-.994086.993532-1.489652,2.199212-1.489652,3.617594,0,1.375546.495566,2.570148,1.489652,3.585283.992609,1.014673,2.17724,1.522333,3.552418,1.522333,1.396595,0,2.613723-.501844,3.649906-1.5059,1.036922-1.003595,1.556121-2.204567,1.556121-3.601716,0-.959836-.273263-1.887453-.81905-2.78285h-2.717858c1.048.611518,1.572369,1.506454,1.572369,2.684716,0,.917-.300589,1.68629-.901029,2.308425-.60044.622042-1.358929.932879-2.274729.932879-.917277,0-1.664688-.299758-2.24371-.900198-.578283-.599886-.867056-1.358652-.867056-2.275744,0-.916538.288772-1.680567.867056-2.291531.579022-.611056,1.326433-.916538,2.24371-.916538h7.104096v9.4945h2.259219v-14.242258h3.306481v14.209485h2.259219v-14.209485h2.749615v-1.5059h-2.749615c-.219349-1.375085-.827174-2.482538-1.822737-3.323098ZM586.565213,258.579203c0,.654815-.234858,1.157121-.703837,1.506454-.469717.349241-1.04283.523354-1.719341.523354s-1.254794-.196269-1.73485-.588808c-.480795-.393092-.720823-.917092-.720823-1.571908v-7.792239h4.87885v7.923147ZM609.025206,249.150157h-5.866289c.202362-.773537.591577-1.400565,1.184632-1.866312.610779-.479595,1.330864-.720177,2.160254-.720177.807972,0,1.516978.234766,2.127758.703837.611518.469624,1.015504,1.097021,1.211958,1.882652h-.818312Z"/>
    <path class="cls-3" d="M691.034352,254.388588h5.765847v-3.732531h2.619631v-1.5059h-17.677893c.429097-.547911.917277-.882935,1.471927-.982454-.872964-.501844-1.735589-1.265318-2.587135-2.291623-1.002949-1.200326-1.712694-1.964354-2.127758-2.292085-.916538-.720177-2.051687-1.167091-3.405446-1.342312l-1.604127,1.408319c1.65878.152418,2.93573.578283,3.83085,1.276858.415064.327177,1.036922,1.058524,1.866312,2.193489.647707.883211,1.370746,1.552798,2.159515,2.029808h-17.612901c-.67651-1.440446-1.669119-2.570148-2.978565-3.388552-1.310185-.818404-2.762171-1.227837-4.35522-1.227837-1.570892,0-3.017709.414787-4.338233,1.244177-1.320524.829482-2.319042,1.953368-2.995552,3.372212h-10.869216c-.67651-1.440446-1.669858-2.570148-2.979304-3.388552s-2.761432-1.227837-4.354481-1.227837c-1.570892,0-3.017709.414787-4.338233,1.244177-1.320524.829482-2.319042,1.953368-2.995552,3.372212h-1.5059v1.5059h1.440169v14.209485h2.259219v-14.209485h17.712605v2.357539c-2.029531.022156-3.624057.873241-4.780623,2.553808v-.949773c-1.135149-1.069049-2.487431-1.604035-4.0598-1.604035-1.615205,0-3.0118.560374-4.190523,1.681582-1.178723,1.121301-1.768085,2.487338-1.768085,4.097743,0,1.610866.583453,3.020201,1.751837,4.228005,1.166906,1.208265,2.547992,1.811936,4.141779,1.811936,1.002949,0,1.985956-.270124,2.946808-.811018v-2.659328c-.760705.894936-1.705308,1.342312-2.835287,1.342312-1.06351,0-1.965277-.364012-2.703825-1.092221-.738548-.728116-1.107823-1.624622-1.107823-2.689424,0-1.06471.369274-1.960661,1.107823-2.689331.739287-.728209,1.641054-1.092313,2.705303-1.092313,1.455679,0,2.542083.650661,3.259214,1.952353-.196454.607825-.294681,1.34545-.294681,2.212968l2.422439,1.138657c-.21861-.498705-.327177-1.008857-.327177-1.529718,0-1.018827.364843-1.897423,1.096744-2.635048.731163-.737625,1.609297-1.116962,2.635879-1.139211v9.691324h2.258481v-14.176805h3.307219v14.209485h2.258481v-14.209485h11.393585v8.9056c0,.895398-.283603,1.620375-.850808,2.177056-.567944.556681-1.299107.834744-2.194227.834744s-1.626283-.278063-2.193489-.834744-.850808-1.281658-.850808-2.177056c0-.872687.299851-1.604589.90029-2.193396.599701-.589362,1.336034-.884319,2.209737-.884319.938695,0,1.712694.371397,2.324212,1.113269v-2.815439c-.807233-.393185-1.615205-.589454-2.422439-.589454-1.463064,0-2.711949.539787-3.748871,1.620467-1.036922,1.080589-1.555383,2.352184-1.555383,3.814325,0,1.440446.524369,2.674099,1.572369,3.69985,1.047262,1.025751,2.291715,1.538581,3.731885,1.538581,1.484482,0,2.744446-.510706,3.781367-1.532765,1.036183-1.022059,1.555383-2.272052,1.555383-3.750533v-3.098303h3.0118v8.3816h2.292454v-14.209485h10.508804v2.095262c-.502213-.130815-1.014765-.196269-1.539135-.196269-1.680936,0-3.110027.60044-4.28875,1.800858s-1.768085,2.651942-1.768085,4.354666c0,1.702169.589362,3.148432,1.768085,4.337771,1.178723,1.189894,2.619631,1.784517,4.321985,1.784517,1.745928,0,3.213424-.589362,4.403225-1.768177,1.189801-1.178723,1.784333-2.629786,1.784333-4.354112h-2.389942c0,1.112808-.351549,2.018822-1.054647,2.717396s-1.607081,1.047354-2.710472,1.047354c-1.081973,0-1.980048-.354596-2.693486-1.063694-.714915-.709191-1.071634-1.609389-1.071634-2.701056,0-1.091205.369274-1.997127,1.108561-2.717858.738548-.720269,1.651394-1.080127,2.738537-1.080127,1.716386,0,2.878861.818404,3.488164,2.455673l.194977-.033235v-6.67897h11.590778v1.768177h-3.422433c-2.149176,0-3.224502.9819-3.224502,2.946346,0,.829944.326438,1.484759.978577,1.964446.564251.436851,1.271042.654815,2.118895.654815,1.564245,0,2.553162.054837,2.967487.16405,1.107823.28388,1.662472.971376,1.662472,2.062581,0,.851085-.277694,1.550213-.831605,2.095262-.553173.546156-1.253317.818404-2.099693.818404-.868533,0-1.617421-.321822-2.247403-.96556-.629243-.643737-.944603-1.402503-.944603-2.275744v-.589362h-2.226723c-.022156.349795-.031758.589362-.031758.720731,0,1.484298.523631,2.706318,1.570892,3.666616,1.048.960851,2.32495,1.440446,3.83085,1.440446,1.353759,0,2.5539-.441652,3.6019-1.325971,1.047262-.883765,1.570892-1.991311,1.570892-3.323098,0-3.0118-1.564245-4.518254-4.694213-4.518254h-1.760699c-.847853-.088626-1.27178-.367243-1.27178-.83576,0-.490211.293942-.735594.88035-.735594ZM628.308703,249.150157h-2.324212c1.222297-1.789226,2.881077-2.684623,4.976339-2.684623s3.754041.895398,4.976339,2.684623h-7.628466ZM653.845489,249.150157h-2.324212c1.222297-1.789226,2.881077-2.684623,4.976339-2.684623s3.754041.895398,4.977077,2.684623h-7.629204ZM667.923697,254.650311h-3.0118v-3.994254h3.0118v3.994254Z"/>
  </g>
  <g>
    <polygon class="cls-1" points="812.952668 260.824499 709.176284 260.824499 710.069471 256.229453 813.845855 256.229453 812.952668 260.824499"/>
    <polygon class="cls-2" points="813.60138 257.97017 709.824996 257.97017 710.718182 253.375123 814.494566 253.375123 813.60138 257.97017"/>
  </g>
</svg>